<svg version="1.1" xmlns="http://www.w3.org/2000/svg" viewBox="0 0 1024.000000 1024.000000" preserveAspectRatio="xMidYMid meet">
<g transform="translate(0.000000,1024.000000) scale(0.100000,-0.100000)"
fill="#000000" stroke="none">
<path style="fill:#ffffff;" d="M4810 8800 c-1128 -99 -2129 -690 -2760 -1630 -835 -1246 -838 -2900
-7 -4145 495 -741 1224 -1271 2087 -1515 101 -29 341 -82 346 -77 5 5 66 368
63 371 -2 2 -60 15 -129 30 -1026 225 -1891 934 -2321 1902 -406 915 -382
1955 67 2854 156 312 345 577 589 829 540 555 1188 880 1970 987 98 14 196 18
395 18 275 0 398 -11 625 -55 539 -106 1054 -351 1482 -706 132 -109 388 -373
489 -503 617 -796 846 -1788 639 -2769 -200 -945 -823 -1777 -1677 -2239 -228
-123 -552 -247 -793 -303 -55 -13 -101 -23 -102 -24 -3 -1 75 -366 79 -371 8
-7 311 74 444 120 179 61 283 105 455 191 368 183 666 399 964 699 308 310
524 614 715 1009 191 396 299 774 352 1232 20 170 17 637 -5 815 -125 1017
-623 1903 -1419 2522 -522 407 -1138 659 -1818 744 -141 18 -587 26 -730 14z"/>
<path style="fill:#FF0000;" d="M4355 7915 c-1014 -282 -1796 -1084 -2056 -2108 -68 -271 -95 -518
-86 -817 13 -437 105 -817 292 -1205 145 -300 312 -534 558 -784 410 -415 921
-692 1487 -805 227 -45 292 -51 585 -50 321 0 453 16 719 83 985 252 1781
1020 2071 1999 398 1345 -185 2768 -1410 3441 -177 97 -499 225 -641 255 l-31
7 -31 -118 c-47 -178 -46 -172 -31 -177 250 -73 426 -144 594 -237 493 -274
870 -673 1111 -1174 309 -643 345 -1370 103 -2049 -88 -246 -262 -556 -429
-762 -418 -514 -994 -844 -1657 -949 -137 -22 -470 -31 -618 -16 -476 48 -934
226 -1320 513 -134 100 -359 318 -468 453 -301 373 -491 811 -563 1300 -22
148 -29 438 -15 591 61 651 343 1239 809 1685 280 269 616 471 982 593 91 30
185 58 208 62 23 4 45 10 47 14 3 4 -9 71 -27 149 -24 109 -35 141 -47 140 -9
0 -70 -15 -136 -34z"/>
<path style="fill:#ffffff;" d="M4850 7295 c-747 -105 -1398 -577 -1724 -1250 -164 -337 -235 -681
-223 -1074 10 -344 77 -612 231 -926 217 -442 540 -778 962 -1002 95 -50 116
-57 166 -58 63 0 100 20 130 71 17 30 768 1984 789 2053 31 104 -80 211 -189
182 -81 -22 -73 -3 -452 -996 -194 -506 -356 -924 -361 -929 -5 -6 -54 21
-124 68 -128 86 -308 252 -407 375 -183 227 -316 497 -387 786 -40 165 -46
225 -46 465 1 216 3 245 28 362 58 272 150 494 296 714 305 459 786 765 1337
849 129 20 417 20 546 1 417 -64 792 -252 1086 -545 283 -281 461 -615 549
-1027 25 -118 27 -148 27 -359 1 -257 -10 -338 -70 -549 -128 -444 -410 -832
-789 -1085 -103 -69 -270 -159 -278 -151 -3 3 -116 244 -251 535 -157 338
-255 538 -271 552 -37 33 -107 40 -164 17 -60 -25 -97 -91 -87 -157 4 -23 134
-316 290 -652 208 -447 290 -614 309 -629 15 -11 48 -21 79 -24 47 -3 67 2
171 47 549 236 993 686 1211 1228 342 854 145 1826 -503 2474 -123 123 -209
192 -358 290 -277 181 -627 308 -963 349 -116 14 -444 11 -560 -5z"/>
</g>
</svg>
